<svg width="32" height="33" viewBox="0 0 32 33" fill="none" xmlns="http://www.w3.org/2000/svg">
<path d="M25.3333 4.03516C26.0406 4.03516 26.7189 4.31611 27.219 4.8162C27.719 5.3163 28 5.99458 28 6.70182V25.3685C28 26.0757 27.719 26.754 27.219 27.2541C26.7189 27.7542 26.0406 28.0352 25.3333 28.0352H6.66667C5.95942 28.0352 5.28115 27.7542 4.78105 27.2541C4.28095 26.754 4 26.0757 4 25.3685V6.70182C4 5.99458 4.28095 5.3163 4.78105 4.8162C5.28115 4.31611 5.95942 4.03516 6.66667 4.03516H25.3333ZM24.6667 24.7018V17.6352C24.6667 16.4823 24.2087 15.3768 23.3936 14.5616C22.5784 13.7464 21.4728 13.2885 20.32 13.2885C19.1867 13.2885 17.8667 13.9818 17.2267 15.0218V13.5418H13.5067V24.7018H17.2267V18.1285C17.2267 17.1018 18.0533 16.2618 19.08 16.2618C19.5751 16.2618 20.0499 16.4585 20.3999 16.8086C20.75 17.1586 20.9467 17.6334 20.9467 18.1285V24.7018H24.6667ZM9.17333 11.4485C9.76742 11.4485 10.3372 11.2125 10.7573 10.7924C11.1773 10.3723 11.4133 9.80257 11.4133 9.20849C11.4133 7.96849 10.4133 6.95516 9.17333 6.95516C8.57571 6.95516 8.00257 7.19256 7.57999 7.61514C7.1574 8.03772 6.92 8.61087 6.92 9.20849C6.92 10.4485 7.93333 11.4485 9.17333 11.4485ZM11.0267 24.7018V13.5418H7.33333V24.7018H11.0267Z" fill="#686677"/>
</svg>
