<svg width="32" height="33" viewBox="0 0 32 33" fill="none" xmlns="http://www.w3.org/2000/svg">
<path d="M29.9466 8.0352C28.9199 8.50186 27.8132 8.80853 26.6666 8.9552C27.8399 8.24853 28.7466 7.12853 29.1732 5.78186C28.0666 6.44853 26.8399 6.9152 25.5466 7.18186C24.4932 6.0352 23.0132 5.36853 21.3332 5.36853C18.1999 5.36853 15.6399 7.92853 15.6399 11.0885C15.6399 11.5419 15.6932 11.9819 15.7866 12.3952C11.0399 12.1552 6.81322 9.8752 3.99989 6.42186C3.50656 7.26186 3.22656 8.24853 3.22656 9.28853C3.22656 11.2752 4.22656 13.0352 5.77322 14.0352C4.82656 14.0352 3.94656 13.7685 3.17322 13.3685V13.4085C3.17322 16.1819 5.14656 18.5019 7.75989 19.0219C6.92086 19.2515 6.04002 19.2834 5.18656 19.1152C5.5487 20.2518 6.25794 21.2464 7.21458 21.9591C8.17122 22.6718 9.32715 23.0668 10.5199 23.0885C8.49806 24.6891 5.99188 25.5543 3.41322 25.5419C2.95989 25.5419 2.50656 25.5152 2.05322 25.4619C4.58656 27.0885 7.59989 28.0352 10.8266 28.0352C21.3332 28.0352 27.1066 19.3152 27.1066 11.7552C27.1066 11.5019 27.1066 11.2619 27.0932 11.0085C28.2132 10.2085 29.1732 9.1952 29.9466 8.0352Z" fill="#686677"/>
</svg>
