<svg width="32" height="33" viewBox="0 0 32 33" fill="none" xmlns="http://www.w3.org/2000/svg">
<path d="M17.3708 2.70178C18.8708 2.70578 19.6321 2.71378 20.2894 2.73245L20.5481 2.74178C20.8468 2.75245 21.1414 2.76578 21.4974 2.78178C22.9161 2.84845 23.8841 3.07245 24.7334 3.40178C25.6135 3.74045 26.3548 4.19912 27.0961 4.93912C27.7741 5.60564 28.2987 6.4119 28.6335 7.30178C28.9628 8.15112 29.1868 9.11912 29.2535 10.5391C29.2695 10.8938 29.2828 11.1884 29.2935 11.4884L29.3015 11.7471C29.3215 12.4031 29.3295 13.1644 29.3321 14.6644L29.3335 15.6591V17.4058C29.3367 18.3783 29.3265 19.3509 29.3028 20.3231L29.2948 20.5818C29.2841 20.8818 29.2708 21.1764 29.2548 21.5311C29.1881 22.9511 28.9615 23.9178 28.6335 24.7684C28.2997 25.6588 27.7749 26.4653 27.0961 27.1311C26.4294 27.8089 25.6232 28.3335 24.7334 28.6684C23.8841 28.9978 22.9161 29.2218 21.4974 29.2885C21.1811 29.3033 20.8646 29.3167 20.5481 29.3284L20.2894 29.3364C19.6321 29.3551 18.8708 29.3645 17.3708 29.3671L16.3761 29.3685H14.6308C13.6578 29.3718 12.6848 29.3616 11.7121 29.3378L11.4535 29.3298C11.1369 29.3178 10.8205 29.304 10.5041 29.2885C9.08545 29.2218 8.11745 28.9978 7.26678 28.6684C6.37701 28.3343 5.57107 27.8096 4.90545 27.1311C4.22685 26.4648 3.70175 25.6585 3.36678 24.7684C3.03745 23.9191 2.81345 22.9511 2.74678 21.5311C2.73193 21.2147 2.7186 20.8983 2.70678 20.5818L2.70012 20.3231C2.67555 19.3509 2.66444 18.3783 2.66678 17.4058V14.6644C2.66306 13.6919 2.67284 12.7194 2.69612 11.7471L2.70545 11.4884C2.71612 11.1884 2.72945 10.8938 2.74545 10.5391C2.81212 9.11912 3.03612 8.15245 3.36545 7.30178C3.70027 6.41099 4.22641 5.60448 4.90678 4.93912C5.57224 4.26108 6.37764 3.73643 7.26678 3.40178C8.11745 3.07245 9.08412 2.84845 10.5041 2.78178C10.8588 2.76578 11.1548 2.75245 11.4535 2.74178L11.7121 2.73378C12.6844 2.71009 13.6569 2.69987 14.6295 2.70312L17.3708 2.70178ZM16.0001 9.36845C14.232 9.36845 12.5363 10.0708 11.2861 11.3211C10.0358 12.5713 9.33345 14.267 9.33345 16.0351C9.33345 17.8032 10.0358 19.4989 11.2861 20.7492C12.5363 21.9994 14.232 22.7018 16.0001 22.7018C17.7682 22.7018 19.4639 21.9994 20.7142 20.7492C21.9644 19.4989 22.6668 17.8032 22.6668 16.0351C22.6668 14.267 21.9644 12.5713 20.7142 11.3211C19.4639 10.0708 17.7682 9.36845 16.0001 9.36845ZM16.0001 12.0351C16.5254 12.035 17.0456 12.1384 17.5309 12.3393C18.0162 12.5403 18.4572 12.8348 18.8287 13.2062C19.2002 13.5776 19.4949 14.0185 19.696 14.5038C19.8971 14.989 20.0007 15.5092 20.0008 16.0344C20.0009 16.5597 19.8975 17.0799 19.6966 17.5652C19.4956 18.0506 19.2011 18.4916 18.8297 18.8631C18.4583 19.2346 18.0174 19.5293 17.5321 19.7304C17.0469 19.9315 16.5267 20.035 16.0015 20.0351C14.9406 20.0351 13.9232 19.6137 13.173 18.8635C12.4229 18.1134 12.0015 17.096 12.0015 16.0351C12.0015 14.9742 12.4229 13.9568 13.173 13.2067C13.9232 12.4565 14.9406 12.0351 16.0015 12.0351M23.0014 7.36845C22.5594 7.36845 22.1355 7.54404 21.8229 7.8566C21.5104 8.16917 21.3348 8.59309 21.3348 9.03512C21.3348 9.47714 21.5104 9.90107 21.8229 10.2136C22.1355 10.5262 22.5594 10.7018 23.0014 10.7018C23.4435 10.7018 23.8674 10.5262 24.18 10.2136C24.4925 9.90107 24.6681 9.47714 24.6681 9.03512C24.6681 8.59309 24.4925 8.16917 24.18 7.8566C23.8674 7.54404 23.4435 7.36845 23.0014 7.36845Z" fill="#686677"/>
</svg>
